<svg xmlns="http://www.w3.org/2000/svg" width="48.956" height="48.955" viewBox="0 0 48.956 48.955"><path d="M24.698 19.04l4.338 4.337-1.065 1.066-4.337-4.336 1.065-1.066zm8.128-4.77a2.368 2.368 0 0 0-3.354 0l-3.604 3.602 4.338 4.337 3.604-3.605a2.368 2.368 0 0 0 0-3.354l-.984-.98zM.696 43.042a2.368 2.368 0 0 0 0 3.354l.98.98c.927.928 2.43.928 3.354 0l21.655-21.655-4.337-4.34L.696 43.043zm42.012-29.165l-.803 2.113-2.112.803 2.112.804.803 2.112.803-2.113 2.113-.804-2.112-.802-.802-2.112zm-6.75-9.16L34.503.883 33.05 4.718l-3.836 1.455 3.836 1.455 1.453 3.836 1.455-3.836 3.835-1.455-3.835-1.455zm10.73 2.138l-.856-2.267-.857 2.266-2.266.857 2.265.86.857 2.265.857-2.265 2.266-.86-2.267-.857z" fill="#fff"/></svg>